<svg width="20" height="20" viewBox="0 0 20 20" fill="none" xmlns="http://www.w3.org/2000/svg">
<path d="M10 20C15.5228 20 20 15.5228 20 10C20 4.47715 15.5228 0 10 0C4.47715 0 0 4.47715 0 10C0 15.5228 4.47715 20 10 20Z" fill="#919EAD"/>
<path d="M13.7101 13.9298C13.5801 13.9298 13.4501 13.8998 13.3301 13.8198L10.2301 11.9698C9.46014 11.5098 8.89014 10.4998 8.89014 9.60977V5.50977C8.89014 5.09977 9.23014 4.75977 9.64014 4.75977C10.0501 4.75977 10.3901 5.09977 10.3901 5.50977V9.60977C10.3901 9.96977 10.6901 10.4998 11.0001 10.6798L14.1001 12.5298C14.4601 12.7398 14.5701 13.1998 14.3601 13.5598C14.2101 13.7998 13.9601 13.9298 13.7101 13.9298Z" fill="#FEFFFF"/>
</svg>
