<svg width="14" height="18" viewBox="0 0 14 18" fill="none" xmlns="http://www.w3.org/2000/svg">
<path fill-rule="evenodd" clip-rule="evenodd" d="M9.79 0.29L10.5 1H13C13.55 1 14 1.45 14 2C14 2.55 13.55 3 13 3H1C0.45 3 0 2.55 0 2C0 1.45 0.45 1 1 1H3.5L4.21 0.29C4.39 0.11 4.65 0 4.91 0H9.09C9.35 0 9.61 0.11 9.79 0.29ZM1.00015 16.0002C1.00015 17.1002 1.90015 18.0002 3.00015 18.0002H11.0002C12.1002 18.0002 13.0002 17.1002 13.0002 16.0002V6.00015C13.0002 4.90015 12.1002 4.00015 11.0002 4.00015H3.00015C1.90015 4.00015 1.00015 4.90015 1.00015 6.00015V16.0002ZM4 6H10C10.55 6 11 6.45 11 7V15C11 15.55 10.55 16 10 16H4C3.45 16 3 15.55 3 15V7C3 6.45 3.45 6 4 6Z" fill="#FEFFFF"/>
</svg>
