<svg width="20" height="20" viewBox="0 0 20 20" fill="none" xmlns="http://www.w3.org/2000/svg">
<path d="M19.49 12.1984V12.2V14.8C19.49 16.2946 19.0251 17.4578 18.2364 18.2464C17.4478 19.0351 16.2846 19.5 14.79 19.5H5.2C3.70546 19.5 2.54235 19.0351 1.7538 18.2454C0.965178 17.4557 0.5 16.29 0.5 14.79V12.2C0.5 10.7054 0.964925 9.54218 1.75355 8.75355C2.54218 7.96492 3.70545 7.5 5.2 7.5H14.8C16.2946 7.5 17.4577 7.96497 18.245 8.75331C19.0321 9.54154 19.4947 10.7043 19.49 12.1984Z" fill="#FEFFFF" stroke="#919EAD"/>
<path d="M13.8801 10.43L10.5301 13.78C10.2401 14.07 9.76009 14.07 9.47009 13.78L6.12009 10.43C5.83009 10.14 5.83009 9.66 6.12009 9.37C6.41009 9.08 6.89009 9.08 7.18009 9.37L9.25009 11.44V0.75C9.25009 0.34 9.59009 0 10.0001 0C10.4101 0 10.7501 0.34 10.7501 0.75V11.44L12.8201 9.37C12.9701 9.22 13.1601 9.15 13.3501 9.15C13.5401 9.15 13.7301 9.22 13.8801 9.37C14.1801 9.66 14.1801 10.13 13.8801 10.43Z" fill="#919EAD"/>
</svg>
